<?xml version="1.0" encoding="UTF-8" standalone="no"?><!DOCTYPE svg PUBLIC "-//W3C//DTD SVG 1.1//EN" "http://www.w3.org/Graphics/SVG/1.1/DTD/svg11.dtd"><!-- Generated by graphviz version 2.40.1 (20161225.0304)
 --><!-- Title: fsm Pages: 1 --><svg xmlns="http://www.w3.org/2000/svg" xmlns:xlink="http://www.w3.org/1999/xlink" width="258pt" height="404pt" viewBox="0.00 0.00 257.71 404.00">
<g id="graph0" class="graph" transform="scale(1 1) rotate(0) translate(4 400)">
<title>fsm</title>
<polygon fill="#ffffff" stroke="transparent" points="-4,4 -4,-400 253.7114,-400 253.7114,4 -4,4"/>
<!-- CmdDispatchBegin -->
<g id="node1" class="node">
<title>CmdDispatchBegin</title>
<ellipse fill="none" stroke="#000000" cx="161.4212" cy="-378" rx="87.4195" ry="18"/>
<text text-anchor="middle" x="161.4212" y="-373.8" font-family="Times,serif" font-size="14.00" fill="#000000">CmdDispatchBegin</text>
</g>
<!-- CmdQueryBegin -->
<g id="node2" class="node">
<title>CmdQueryBegin</title>
<ellipse fill="none" stroke="#000000" cx="107.4212" cy="-306" rx="77.0294" ry="18"/>
<text text-anchor="middle" x="107.4212" y="-301.8" font-family="Times,serif" font-size="14.00" fill="#000000">CmdQueryBegin</text>
</g>
<!-- CmdDispatchBegin&#45;&gt;CmdQueryBegin -->
<g id="edge1" class="edge">
<title>CmdDispatchBegin-&gt;CmdQueryBegin</title>
<path fill="none" stroke="#000000" d="M148.0729,-360.2022C141.7123,-351.7214 133.9799,-341.4115 126.9734,-332.0696"/>
<polygon fill="#000000" stroke="#000000" points="129.6032,-329.7426 120.8031,-323.8425 124.0032,-333.9426 129.6032,-329.7426"/>
</g>
<!-- CmdQueryFinish -->
<g id="node4" class="node">
<title>CmdQueryFinish</title>
<ellipse fill="none" stroke="#000000" cx="107.4212" cy="-90" rx="78.1907" ry="18"/>
<text text-anchor="middle" x="107.4212" y="-85.8" font-family="Times,serif" font-size="14.00" fill="#000000">CmdQueryFinish</text>
</g>
<!-- CmdQueryBegin&#45;&gt;CmdQueryFinish -->
<g id="edge3" class="edge">
<title>CmdQueryBegin-&gt;CmdQueryFinish</title>
<path fill="none" stroke="#000000" d="M64.6281,-290.8691C47.092,-282.3252 28.5628,-269.7265 18.4212,-252 -5.4159,-210.3348 -6.2293,-185.7714 17.4212,-144 25.7482,-129.2931 39.8551,-118.1546 54.4609,-109.9294"/>
<polygon fill="#000000" stroke="#000000" points="56.3234,-112.9055 63.5722,-105.1786 53.087,-106.6986 56.3234,-112.9055"/>
</g>
<!-- StmtHandleBegin -->
<g id="node5" class="node">
<title>StmtHandleBegin</title>
<ellipse fill="none" stroke="#000000" cx="107.4212" cy="-234" rx="80.4751" ry="18"/>
<text text-anchor="middle" x="107.4212" y="-229.8" font-family="Times,serif" font-size="14.00" fill="#000000">StmtHandleBegin</text>
</g>
<!-- CmdQueryBegin&#45;&gt;StmtHandleBegin -->
<g id="edge4" class="edge">
<title>CmdQueryBegin-&gt;StmtHandleBegin</title>
<path fill="none" stroke="#000000" d="M107.4212,-287.8314C107.4212,-280.131 107.4212,-270.9743 107.4212,-262.4166"/>
<polygon fill="#000000" stroke="#000000" points="110.9213,-262.4132 107.4212,-252.4133 103.9213,-262.4133 110.9213,-262.4132"/>
</g>
<!-- CmdDispatchFinish -->
<g id="node3" class="node">
<title>CmdDispatchFinish</title>
<ellipse fill="none" stroke="#000000" cx="161.4212" cy="-18" rx="88.0808" ry="18"/>
<text text-anchor="middle" x="161.4212" y="-13.8" font-family="Times,serif" font-size="14.00" fill="#000000">CmdDispatchFinish</text>
</g>
<!-- CmdDispatchFinish&#45;&gt;CmdDispatchBegin -->
<g id="edge2" class="edge">
<title>CmdDispatchFinish-&gt;CmdDispatchBegin</title>
<path fill="none" stroke="#000000" d="M174.5215,-36.2319C181.2835,-46.3582 189.1894,-59.4207 194.4212,-72 210.2343,-110.0204 216.4212,-120.8223 216.4212,-162 216.4212,-234 216.4212,-234 216.4212,-234 216.4212,-275.2855 209.2159,-285.8552 193.4212,-324 189.6248,-333.1686 184.4802,-342.6471 179.427,-351.055"/>
<polygon fill="#000000" stroke="#000000" points="176.363,-349.3541 174.0476,-359.6928 182.305,-353.0545 176.363,-349.3541"/>
</g>
<!-- CmdQueryFinish&#45;&gt;CmdDispatchFinish -->
<g id="edge5" class="edge">
<title>CmdQueryFinish-&gt;CmdDispatchFinish</title>
<path fill="none" stroke="#000000" d="M120.7695,-72.2022C127.1302,-63.7214 134.8626,-53.4115 141.8691,-44.0696"/>
<polygon fill="#000000" stroke="#000000" points="144.8393,-45.9426 148.0393,-35.8425 139.2393,-41.7426 144.8393,-45.9426"/>
</g>
<!-- StmtHandleFinish -->
<g id="node6" class="node">
<title>StmtHandleFinish</title>
<ellipse fill="none" stroke="#000000" cx="107.4212" cy="-162" rx="81.136" ry="18"/>
<text text-anchor="middle" x="107.4212" y="-157.8" font-family="Times,serif" font-size="14.00" fill="#000000">StmtHandleFinish</text>
</g>
<!-- StmtHandleBegin&#45;&gt;StmtHandleFinish -->
<g id="edge6" class="edge">
<title>StmtHandleBegin-&gt;StmtHandleFinish</title>
<path fill="none" stroke="#000000" d="M101.4688,-215.8314C100.7184,-208.131 100.4975,-198.9743 100.8061,-190.4166"/>
<polygon fill="#000000" stroke="#000000" points="104.3004,-190.6161 101.4452,-180.4133 97.3147,-190.1697 104.3004,-190.6161"/>
</g>
<!-- StmtHandleFinish&#45;&gt;CmdQueryFinish -->
<g id="edge7" class="edge">
<title>StmtHandleFinish-&gt;CmdQueryFinish</title>
<path fill="none" stroke="#000000" d="M107.4212,-143.8314C107.4212,-136.131 107.4212,-126.9743 107.4212,-118.4166"/>
<polygon fill="#000000" stroke="#000000" points="110.9213,-118.4132 107.4212,-108.4133 103.9213,-118.4133 110.9213,-118.4132"/>
</g>
<!-- StmtHandleFinish&#45;&gt;StmtHandleBegin -->
<g id="edge8" class="edge">
<title>StmtHandleFinish-&gt;StmtHandleBegin</title>
<path fill="none" stroke="#000000" d="M113.3972,-180.4133C114.1283,-188.0593 114.3415,-197.1084 114.0367,-205.5726"/>
<polygon fill="#000000" stroke="#000000" points="110.526,-205.6264 113.3736,-215.8314 117.5114,-206.078 110.526,-205.6264"/>
</g>
</g>
</svg>